<svg xmlns="http://www.w3.org/2000/svg" viewBox="1433.015 380.982 51.985 46.802">
  <defs>
    <style>
      .cls-1 {
        fill: #e4002b;
      }
    </style>
  </defs>
  <g id="goal_post" data-name="goal post" transform="translate(1433.049 381.052)">
    <rect id="Rectangle_1" data-name="Rectangle 1" width="44.991" height="2.735" transform="translate(-0.034 45.817) rotate(-70.458)"/>
    <g id="Group_1" data-name="Group 1" transform="translate(8.491 -0.07)">
      <path id="Path_3" data-name="Path 3" class="cls-1" d="M14.038,4.151C20.6-.635,27.439.733,32.909,3.468S43.849,4.835,47.952,2.1L41.114,19.878c-4.1,2.735-9.573,4.1-15.043,1.368s-12.308-4.1-18.872.684Z" transform="translate(-5.832 0.457)"/>
      <path id="Path_4" data-name="Path 4" d="M32.593,24.5a15.245,15.245,0,0,1-6.838-1.641c-6.564-3.282-12.444-3.145-17.367.547a1.248,1.248,0,0,1-1.641,0,1.267,1.267,0,0,1-.41-1.641L13.174,3.992c.137-.274.274-.41.41-.684C19.465-.931,26.3-1.2,33.824,2.624,39.7,5.5,44.9,3.034,47.5,1.393a1.454,1.454,0,0,1,1.641.137,1.3,1.3,0,0,1,.41,1.5L42.712,20.812a1.365,1.365,0,0,1-.547.684A17.152,17.152,0,0,1,32.593,24.5ZM16.867,17.8a22.686,22.686,0,0,1,10.12,2.6,13.1,13.1,0,0,0,13.265-1.094L45.584,5.5a15.71,15.71,0,0,1-13.128-.41C26.166,1.94,20.422,2.077,15.5,5.359L10.166,19.171A16.332,16.332,0,0,1,16.867,17.8Z" transform="translate(-6.2 0.07)"/>
    </g>
  </g>
</svg>
