<svg xmlns="http://www.w3.org/2000/svg" viewBox="2005 -150 41.561 18.734">
  <g id="Group_5" data-name="Group 5" transform="translate(2005 -150)">
    <g id="Group_2" data-name="Group 2" transform="translate(0 0.773)">
      <path id="Path_6" data-name="Path 6" d="M3.638,19.661V12.022h3.41c2.41,0,3.865-.591,4.865-1.682a5.512,5.512,0,0,0,1.455-3.865,5.723,5.723,0,0,0-1.455-3.865A4.564,4.564,0,0,0,10.731,1.7L8.685,4.519a1.78,1.78,0,0,1,.455.364,2.308,2.308,0,0,1,0,3.183,2.808,2.808,0,0,1-2.274.728H5.548L0,16.478v3.183Z" transform="translate(0 -1.7)"/>
    </g>
    <path id="Path_7" data-name="Path 7" d="M54.519,0,52.2,3.228h3.138V0Z" transform="translate(-28.464)"/>
    <path id="Path_8" data-name="Path 8" d="M39.675,15.6,34.4,22.83v4.411h3.592V18.828h5.775V15.6Z" transform="translate(-18.758 -8.506)"/>
    <path id="Path_9" data-name="Path 9" d="M71.975,15.6,66.7,22.83v4.411h3.638V18.828h5.729V15.6Z" transform="translate(-36.37 -8.506)"/>
    <path id="Path_10" data-name="Path 10" d="M86.819,0,84.5,3.228h3.138V0Z" transform="translate(-46.076)"/>
  </g>
</svg>
