<svg xmlns="http://www.w3.org/2000/svg" viewBox="30 -105 120 27.582">
  <g id="PFF_Logo" data-name="PFF Logo" transform="translate(30 -105)">
    <g id="Group_1" data-name="Group 1" transform="translate(67.582 0.196)">
      <path id="Path_1" data-name="Path 1" d="M149.282,30.331v7.582H151.7a4.157,4.157,0,0,0,2.614-.719,3.9,3.9,0,0,0,1.5-3.072,3.809,3.809,0,0,0-1.5-3.072,4.157,4.157,0,0,0-2.614-.719Zm5.1,3.791a2.573,2.573,0,0,1-.523,1.634,2.325,2.325,0,0,1-1.961.85h-1.111V31.638H151.9a2.413,2.413,0,0,1,1.961.85,2.573,2.573,0,0,1,.523,1.634m-10.915-.915V31.573h1.242c.458,0,.588.065.719.261a.8.8,0,0,1,.2.588.912.912,0,0,1-.2.588.944.944,0,0,1-.719.2h-1.242Zm.588,1.307,2.68,3.4h1.83l-2.876-3.464a1.911,1.911,0,0,0,.784-.458,2.165,2.165,0,0,0,.654-1.569,2.282,2.282,0,0,0-.654-1.569,2.339,2.339,0,0,0-1.634-.588h-2.745v7.647h1.438v-3.4Zm-6.667-1.83.98,2.222h-1.961Zm-2.222,5.229.719-1.7h3.072l.719,1.7h1.5l-3.268-7.582h-1.046L133.6,37.912Zm-9.085,0h1.046l1.7-4.837,1.7,4.837h1.046l2.549-7.582H132.55L130.982,35.1l-1.7-4.771h-1.046l-1.7,4.771-1.569-4.771h-1.5Zm-7.124-4.706V31.573H120.2c.392,0,.588.065.719.261a.8.8,0,0,1,.2.588.912.912,0,0,1-.2.588.944.944,0,0,1-.719.2h-1.242Zm.588,1.307,2.68,3.4h1.83l-2.876-3.464a1.912,1.912,0,0,0,.784-.458,2.165,2.165,0,0,0,.654-1.569,2.282,2.282,0,0,0-.654-1.569,2.339,2.339,0,0,0-1.634-.588h-2.81v7.647h1.438v-3.4Zm-11.176-.392a3.987,3.987,0,1,0,3.987-3.922,3.867,3.867,0,0,0-3.987,3.922m1.5,0a2.487,2.487,0,1,1,2.484,2.614,2.513,2.513,0,0,1-2.484-2.614m-1.9-2.484V30.331H103.4v7.582h1.438v-3.4h2.353V33.207h-2.353V31.638h3.137Z" transform="translate(-103.4 -10.658)"/>
      <path id="Path_2" data-name="Path 2" d="M121.112,15.331v1.307h2.026v6.275h1.438V16.638H126.6V15.331Zm-5.686,6.6a3.967,3.967,0,0,0,2.745,1.111,2.38,2.38,0,0,0,2.549-2.288c0-2.549-3.529-2.157-3.529-3.4,0-.588.588-.85,1.176-.85a1.825,1.825,0,0,1,1.307.523l.784-1.111a3.607,3.607,0,0,0-2.222-.719,2.3,2.3,0,0,0-2.484,2.157,1.854,1.854,0,0,0,1.046,1.7c1.046.588,2.418.719,2.418,1.7a1.039,1.039,0,0,1-1.111.98,2.2,2.2,0,0,1-1.765-.85Zm-4.248-4.248.98,2.222H110.2Zm-2.222,5.229.719-1.7h3.072l.719,1.7h1.5L111.7,15.331h-1.046l-3.268,7.582Zm-.98-6.275V15.331H103.4v7.582h1.438v-3.4h2.353V18.207h-2.353V16.638Z" transform="translate(-103.4 -5.461)"/>
      <path id="Path_3" data-name="Path 3" d="M139.609,4.222a3.987,3.987,0,0,0,7.974,0A3.867,3.867,0,0,0,143.6.3a3.792,3.792,0,0,0-3.987,3.922m1.438,0a2.487,2.487,0,1,1,4.967,0,2.513,2.513,0,0,1-2.484,2.614,2.6,2.6,0,0,1-2.484-2.614m-4.118,3.791h1.438V.365h-1.438Zm-4.771-6.405a2.621,2.621,0,0,1,1.83.784l.915-.98A3.942,3.942,0,0,0,132.093.3a3.829,3.829,0,0,0-3.987,3.922,3.884,3.884,0,0,0,4.052,3.922,4.026,4.026,0,0,0,3.2-1.438V3.241h-3.4V4.548h1.961V6.182a2.8,2.8,0,0,1-1.7.588,2.581,2.581,0,0,1-2.614-2.614,2.511,2.511,0,0,1,2.549-2.549m-8.3,0a2.621,2.621,0,0,1,1.83.784l.915-.98A3.942,3.942,0,0,0,123.792.3a3.829,3.829,0,0,0-3.987,3.922,3.884,3.884,0,0,0,4.052,3.922,4.026,4.026,0,0,0,3.2-1.438V3.241h-3.4V4.548h1.961V6.182a2.8,2.8,0,0,1-1.7.588,2.581,2.581,0,0,1-2.614-2.614,2.511,2.511,0,0,1,2.549-2.549m-7.843,1.176.98,2.222h-1.961Zm-2.222,5.229.719-1.7h3.072l.719,1.7h1.5L116.537.431h-1.046l-3.268,7.582Zm-3.856,0h1.438V.365h-1.438Zm-5.1-4.444v-1.9h1.307A1.09,1.09,0,0,1,107.06,2a.839.839,0,0,1,.261.654.839.839,0,0,1-.261.654,1.09,1.09,0,0,1-.915.327h-1.307Zm1.438,1.307a2.6,2.6,0,0,0,1.961-.654,2.226,2.226,0,0,0,.588-1.569,2.226,2.226,0,0,0-.588-1.569,2.366,2.366,0,0,0-1.961-.654H103.4V8.012h1.438V4.875Z" transform="translate(-103.4 -0.3)"/>
    </g>
    <g id="Group_3" data-name="Group 3">
      <g id="Group_2" data-name="Group 2" transform="translate(0 1.111)">
        <path id="Path_4" data-name="Path 4" d="M5.229,27.517V16.537h4.9c3.464,0,5.556-.85,6.993-2.418a7.922,7.922,0,0,0,2.092-5.556,8.226,8.226,0,0,0-2.092-5.556,6.561,6.561,0,0,0-1.7-1.307L12.484,5.752a2.559,2.559,0,0,1,.654.523,3.317,3.317,0,0,1,0,4.575c-.588.654-1.5,1.046-3.268,1.046h-1.9L0,22.942v4.575Z" transform="translate(0 -1.7)"/>
      </g>
      <path id="Path_5" data-name="Path 5" d="M55.533,0,52.2,4.641h4.51V0Z" transform="translate(-18.082)"/>
      <path id="Path_6" data-name="Path 6" d="M41.982,15.6,34.4,25.992v6.34h5.163V20.241h8.3V15.6Z" transform="translate(-11.916 -5.404)"/>
      <path id="Path_7" data-name="Path 7" d="M74.282,15.6,66.7,25.992v6.34h5.229V20.241h8.235V15.6Z" transform="translate(-23.105 -5.404)"/>
      <path id="Path_8" data-name="Path 8" d="M87.833,0,84.5,4.641h4.51V0Z" transform="translate(-29.271)"/>
    </g>
  </g>
</svg>
